<?xml version="1.0" encoding="UTF-8" standalone="no"?>
<!-- Created with Inkscape (http://www.inkscape.org/) -->

<svg
   width="64pt"
   height="64pt"
   viewBox="0 0 22.577778 22.577778"
   version="1.1"
   id="svg831"
   inkscape:version="1.1.2 (b8e25be833, 2022-02-05)"
   sodipodi:docname="Export - Unblash - 64px.svg"
   inkscape:export-filename="E:\Project Design\TR Icon Design Project\Carlos - Icon Design Project\Done\Flat\15 - Cricket.png"
   inkscape:export-xdpi="576"
   inkscape:export-ydpi="576"
   xmlns:inkscape="http://www.inkscape.org/namespaces/inkscape"
   xmlns:sodipodi="http://sodipodi.sourceforge.net/DTD/sodipodi-0.dtd"
   xmlns="http://www.w3.org/2000/svg"
   xmlns:svg="http://www.w3.org/2000/svg"
   xmlns:rdf="http://www.w3.org/1999/02/22-rdf-syntax-ns#"
   xmlns:cc="http://creativecommons.org/ns#"
   xmlns:dc="http://purl.org/dc/elements/1.1/">
  <defs
     id="defs825">
    <pattern
       id="EMFhbasepattern"
       patternUnits="userSpaceOnUse"
       width="6"
       height="6"
       x="0"
       y="0" />
    <pattern
       id="EMFhbasepattern-9"
       patternUnits="userSpaceOnUse"
       width="6"
       height="6"
       x="0"
       y="0" />
    <pattern
       id="EMFhbasepattern-0"
       patternUnits="userSpaceOnUse"
       width="6"
       height="6"
       x="0"
       y="0" />
    <pattern
       id="EMFhbasepattern-7"
       patternUnits="userSpaceOnUse"
       width="6"
       height="6"
       x="0"
       y="0" />
    <pattern
       id="EMFhbasepattern-2"
       patternUnits="userSpaceOnUse"
       width="6"
       height="6"
       x="0"
       y="0" />
    <pattern
       id="EMFhbasepattern-98"
       patternUnits="userSpaceOnUse"
       width="6"
       height="6"
       x="0"
       y="0" />
    <pattern
       id="EMFhbasepattern-6"
       patternUnits="userSpaceOnUse"
       width="6"
       height="6"
       x="0"
       y="0" />
    <pattern
       id="EMFhbasepattern-01"
       patternUnits="userSpaceOnUse"
       width="6"
       height="6"
       x="0"
       y="0" />
    <pattern
       id="EMFhbasepattern-07"
       patternUnits="userSpaceOnUse"
       width="6"
       height="6"
       x="0"
       y="0" />
    <pattern
       id="EMFhbasepattern-8"
       patternUnits="userSpaceOnUse"
       width="6"
       height="6"
       x="0"
       y="0" />
    <pattern
       id="EMFhbasepattern-4"
       patternUnits="userSpaceOnUse"
       width="6"
       height="6"
       x="0"
       y="0" />
    <pattern
       id="EMFhbasepattern-40"
       patternUnits="userSpaceOnUse"
       width="6"
       height="6"
       x="0"
       y="0" />
    <pattern
       id="EMFhbasepattern-08"
       patternUnits="userSpaceOnUse"
       width="6"
       height="6"
       x="0"
       y="0" />
    <pattern
       id="EMFhbasepattern-04"
       patternUnits="userSpaceOnUse"
       width="6"
       height="6"
       x="0"
       y="0" />
    <pattern
       id="EMFhbasepattern-014"
       patternUnits="userSpaceOnUse"
       width="6"
       height="6"
       x="0"
       y="0" />
    <pattern
       id="EMFhbasepattern-27"
       patternUnits="userSpaceOnUse"
       width="6"
       height="6"
       x="0"
       y="0" />
    <pattern
       id="EMFhbasepattern-09"
       patternUnits="userSpaceOnUse"
       width="6"
       height="6"
       x="0"
       y="0" />
    <pattern
       id="EMFhbasepattern-5"
       patternUnits="userSpaceOnUse"
       width="6"
       height="6"
       x="0"
       y="0" />
    <pattern
       id="EMFhbasepattern-018"
       patternUnits="userSpaceOnUse"
       width="6"
       height="6"
       x="0"
       y="0" />
  </defs>
  <sodipodi:namedview
     id="base"
     pagecolor="#ffffff"
     bordercolor="#666666"
     borderopacity="1.0"
     inkscape:pageopacity="0.0"
     inkscape:pageshadow="2"
     inkscape:zoom="3.5039063"
     inkscape:cx="42.666667"
     inkscape:cy="42.666667"
     inkscape:document-units="pt"
     inkscape:current-layer="layer1"
     showgrid="false"
     units="pt"
     inkscape:window-width="958"
     inkscape:window-height="508"
     inkscape:window-x="953"
     inkscape:window-y="0"
     inkscape:window-maximized="0"
     inkscape:pagecheckerboard="true"
     inkscape:showpageshadow="false"
     inkscape:object-paths="true"
     inkscape:snap-intersection-paths="true"
     inkscape:snap-smooth-nodes="true"
     inkscape:snap-midpoints="true"
     showguides="true"
     inkscape:snap-bbox="true"
     inkscape:bbox-nodes="true"
     inkscape:snap-nodes="false"
     inkscape:snap-global="true"
     inkscape:snap-others="false">
    <inkscape:grid
       type="xygrid"
       id="grid1378" />
    <sodipodi:guide
       position="0.97013831,21.607643"
       orientation="78.000048,0"
       id="guide1380"
       inkscape:locked="false" />
    <sodipodi:guide
       position="0.97013831,0.97013129"
       orientation="0,78.000005"
       id="guide1382"
       inkscape:locked="false" />
    <sodipodi:guide
       position="21.607639,0.97013129"
       orientation="-78.000048,0"
       id="guide1384"
       inkscape:locked="false" />
    <sodipodi:guide
       position="21.607639,21.607643"
       orientation="0,-78.000005"
       id="guide1386"
       inkscape:locked="false" />
  </sodipodi:namedview>
  <metadata
     id="metadata828">
    <rdf:RDF>
      <cc:Work
         rdf:about="">
        <dc:format>image/svg+xml</dc:format>
        <dc:type
           rdf:resource="http://purl.org/dc/dcmitype/StillImage" />
      </cc:Work>
    </rdf:RDF>
  </metadata>
  <g
     inkscape:label="Icon"
     inkscape:groupmode="layer"
     id="layer1"
     transform="translate(0,-274.42223)">
    <path
       id="path4788"
       style="color:#000000;display:inline;fill:#000000;stroke-width:1;stroke-linecap:round;stroke-linejoin:round;-inkscape-stroke:none"
       d="m 20.345472,275.40137 c -0.09655,0.003 -0.192743,0.023 -0.28455,0.0624 -0.860258,0.36867 -1.720695,0.73751 -2.581084,1.10636 v 4.14416 l 2.581084,1.10636 c 0.293879,0.12605 0.638046,0.0591 0.864043,-0.16696 l 0.449561,-0.44697 c 0.272399,-0.2724 0.305758,-0.70107 0.100698,-1.01215 l -3.067024,-0.6575 c -0.179556,-0.0386 -0.293852,-0.21542 -0.255315,-0.39499 0.03862,-0.17863 0.214133,-0.29264 0.393042,-0.25532 l 2.596673,0.55611 0.231928,-0.23193 c 0.310814,-0.31081 0.310814,-0.82608 0,-1.13689 l -0.430072,-0.43008 0.430072,-0.42942 c 0.310798,-0.31081 0.310798,-0.82348 0,-1.1343 l -0.44956,-0.44956 c -0.155402,-0.15541 -0.36709,-0.23532 -0.579494,-0.22933 z m -19.37533344,6.75122 c -1.672e-5,3.71868 3.02082234,6.73953 6.73952924,6.73954 1.3649282,0 2.6350522,-0.40794 3.6971892,-1.10702 l -0.146172,-0.0318 c -0.06233,-0.0131 -0.119601,-0.0438 -0.165014,-0.0884 l -0.797126,-0.79779 c -0.7689064,0.42226 -1.651101,0.66267 -2.5888772,0.66265 -2.9736829,0 -5.3895524,-2.41586 -5.3895458,-5.38953 -6.6e-6,-2.97368 2.4158629,-5.39214 5.3895458,-5.39215 2.9736862,-10e-6 5.3921502,2.41847 5.3921402,5.39215 4e-6,0.93756 -0.240867,1.81913 -0.663298,2.58757 l 0.795828,0.79582 c 0.04548,0.0449 0.07705,0.10196 0.09096,0.16438 l 0.02987,0.14162 c 0.691266,-1.05802 1.094679,-2.32057 1.094671,-3.67706 4e-6,-0.586 -0.07537,-1.15461 -0.216335,-1.69689 -0.762899,-0.24922 -1.320753,-0.97015 -1.320753,-1.81189 0,-0.22147 0.03838,-0.43502 0.109147,-0.63343 -1.218127,-1.55915 -3.1049986,-2.57128 -5.2700334,-2.5977 -3.7608936,-2.6e-4 -6.7817326,3.02123 -6.78171701,6.73991 z M 16.814591,276.85531 c -0.221747,0.095 -0.443524,0.19014 -0.665247,0.2852 v 3.00335 l 0.665247,0.2852 z m -1.996392,0.4567 c -0.730864,0 -1.330494,0.59961 -1.330494,1.3305 0,0.73088 0.59963,1.33114 1.330494,1.33114 h 0.665248 v -2.66164 z m -6.8947972,0.10648 V 278.99 h 2.0334255 v -1.01086 C 9.3476469,277.6501 8.6573993,277.4511 7.9234018,277.41855 Z m -0.6652475,0.0168 c -1.2196281,0.11516 -2.3019059,0.69206 -3.0722193,1.55463 h 3.0722193 z m 12.2966867,0.40539 c 0.03854,0.17957 -0.07576,0.35639 -0.255315,0.395 -0.248637,0.0533 -0.497774,0.10648 -0.746455,0.15981 -0.179792,0.039 -0.357053,-0.0754 -0.395642,-0.25532 -0.03895,-0.17978 0.07544,-0.35704 0.255316,-0.39564 0.248676,-0.0532 0.497731,-0.10585 0.746454,-0.15917 0.145682,-0.039 0.341222,0.0522 0.395642,0.25532 z m -8.932766,0.5756 v 0.57364 h 0.613275 c -0.186775,-0.20894 -0.392337,-0.40072 -0.613275,-0.57364 z m -6.9324779,1.2389 c -0.3712346,0.60107 -0.6121574,1.29148 -0.6821381,2.03276 h 1.5520257 v -2.03276 z m 1.5357871,0 v 2.03276 h 2.0327701 v -2.03276 z m 2.6980176,0 v 2.03276 h 2.0334255 v -2.03276 z m 2.6986732,0 v 2.03276 h 1.792399 c -0.07009,-0.74128 -0.310478,-1.43169 -0.682138,-2.03276 z m -7.630858,2.698 c 0.032431,0.73438 0.2310338,1.42435 0.560002,2.03343 h 1.0082657 v -2.03343 z m 2.2341672,0 v 2.03343 h 2.0327701 v -2.03343 z m 2.6980176,0 v 2.03343 h 2.0334255 v -2.03343 z m 2.6986732,0 v 2.03343 h 1.248636 c 0.329364,-0.60908 0.52819,-1.29905 0.560653,-2.03343 z m -6.6355846,2.69608 c 0.1727349,0.22097 0.3641964,0.42649 0.5729943,0.61327 v -0.61327 z m 1.2388938,0 v 1.11091 c 0.6008282,0.37134 1.2913419,0.61223 2.0327701,0.68214 v -1.79305 z m 2.6980176,0 v 1.80928 c 0.7339975,-0.0324 1.4242451,-0.23128 2.0334255,-0.56 v -1.24928 z m 2.6986732,0 v 0.81272 c 0.302957,-0.23686 0.575748,-0.50989 0.812719,-0.81272 z m 1.45133,0.25336 c -0.334397,0.45973 -0.739313,0.8651 -1.199265,1.19927 l 0.622369,0.62237 0.637962,0.13772 0.697731,-0.69967 -0.137725,-0.63862 z m 1.593604,1.36752 -1.424046,1.42405 0.483346,0.48334 1.424045,-1.42339 z m 4.536549,4.53851 -3.584155,-3.58545 -1.424045,1.42339 3.584151,3.5861 z m 0.709343,0.23126 -1.902192,1.90155 0.482773,0.4827 1.901544,-1.90219 z m 0.953775,0.95371 -1.901543,1.90154 1.435089,1.43314 c 0.390523,0.39053 1.033521,0.39053 1.424045,0 l 0.476197,-0.47685 c 0.390531,-0.39053 0.390531,-1.03351 0,-1.42404 z"
       sodipodi:nodetypes="scccccccccccsscccsscsccccssssccccscscccscccscsccscccccccccccccccccccccccccccccccccccccccccccccccccccccccccccccccccccccccccccccccccccccccccccccccccccccccccccc" />
  </g>
</svg>
